<svg width="130" height="154" viewBox="0 0 130 154" fill="none" xmlns="http://www.w3.org/2000/svg">
<path fill-rule="evenodd" clip-rule="evenodd" d="M64.9441 146.067C61.5698 146.121 56.7293 143.384 56.7293 143.384C46.5889 138.314 26.771 118.596 24.3328 93.6042C21.9675 69.3598 34.5498 45.7055 64.6309 45.6024L64.6773 45.6023C64.6956 45.6022 64.714 45.6021 64.7323 45.6021L64.8284 45.6021C94.9096 45.7051 107.492 69.3598 105.127 93.6042C102.688 118.596 82.8704 138.314 72.73 143.384C72.73 143.384 68.1596 146.015 64.9441 146.067Z" fill="#001835"/>
<path d="M82.2511 59.855C81.7124 60.8259 80.8608 63.0383 81.7646 64.1212L78.9317 65.0003C81.6586 56.9932 86.911 40.4288 86.1058 38.2276C85.0994 35.4761 95.4639 31.6798 89.6068 40.6038C84.9212 47.743 82.7507 56.4126 82.2511 59.855Z" fill="#001835" stroke="#001835" stroke-width="1.93247"/>
<path d="M92.4539 34.1306C91.6567 35.1125 89.6434 36.9607 87.968 36.4979L88.4717 39.8153C95.9433 33.4941 111.603 20.8197 114.469 20.6918C118.053 20.532 116.854 8.14169 110 18.1046C104.516 26.075 96.0177 32.1096 92.4539 34.1306Z" fill="#001835" stroke="#001835" stroke-width="1.93247"/>
<path d="M47.0671 59.855C47.6059 60.8259 48.4574 63.0383 47.5536 64.1212L50.3865 65.0003C47.6597 56.9932 42.4073 40.4288 43.2124 38.2276C44.2188 35.4761 33.8544 31.6798 39.7114 40.6038C44.397 47.743 46.5675 56.4126 47.0671 59.855Z" fill="#001835" stroke="#001835" stroke-width="1.93247"/>
<path d="M36.8643 34.1306C37.6615 35.1125 39.6748 36.9607 41.3502 36.4979L40.8466 39.8153C33.375 33.4941 17.7152 20.8197 14.8488 20.6918C11.2657 20.532 12.4638 8.14169 19.3185 18.1046C24.8022 26.075 33.3006 32.1096 36.8643 34.1306Z" fill="#001835" stroke="#001835" stroke-width="1.93247"/>
<path fill-rule="evenodd" clip-rule="evenodd" d="M45.0193 127.026C47.0173 128.828 49.0889 130.698 51.0034 132.528C51.8867 133.373 52.9918 134.46 53.8176 135.45C53.8484 135.487 53.8865 135.525 53.9254 135.563C54.0465 135.683 54.1769 135.813 54.1285 135.955C54.1154 135.993 54.0721 136.007 54.0299 136.02C54.0128 136.025 53.9959 136.031 53.9813 136.037C53.8219 136.112 53.7092 136.158 53.6165 136.196C53.355 136.304 53.2523 136.346 52.7091 136.774C50.4189 138.579 48.8591 141.033 47.6125 143.647C47.5425 143.794 47.4811 143.945 47.4198 144.096C47.3347 144.304 47.2497 144.513 47.1421 144.711C47.14 144.715 47.138 144.718 47.1359 144.722C47.0842 144.817 47.0121 144.95 46.9089 144.938C46.7041 144.915 46.5573 144.357 46.4633 143.999C46.4334 143.885 46.4088 143.792 46.3894 143.743C46.2042 143.27 46.1726 143.573 46.1404 143.882C46.1362 143.921 46.1321 143.961 46.1276 143.999C45.8817 146.096 45.7901 148.228 46.1767 150.314C46.3772 151.396 46.8245 152.514 47.3548 153.484C47.4404 153.64 47.4213 153.67 47.183 153.55C45.5091 152.703 44.3283 150.771 43.4893 149.168C42.2295 146.76 41.7632 144.233 41.5995 141.537C41.3901 138.088 41.3676 134.499 41.8572 131.072C42.0949 129.408 42.6982 127.997 43.3871 126.503C43.4201 126.432 43.4518 126.35 43.4843 126.267C43.545 126.111 43.6086 125.948 43.6897 125.825C44.1275 126.221 44.5716 126.622 45.0193 127.026ZM84.7175 127.026C82.7196 128.829 80.648 130.698 78.7335 132.528C77.8502 133.373 76.7452 134.46 75.9193 135.45C75.8885 135.487 75.8505 135.525 75.8115 135.563C75.6904 135.683 75.56 135.813 75.6084 135.955C75.6215 135.993 75.6648 136.007 75.7071 136.02C75.7241 136.025 75.741 136.031 75.7557 136.037C75.915 136.112 76.0277 136.158 76.1204 136.196C76.3819 136.304 76.4847 136.346 77.0278 136.774C79.318 138.579 80.8778 141.033 82.1245 143.647C82.1944 143.794 82.2558 143.945 82.3172 144.096C82.4022 144.304 82.4872 144.513 82.5949 144.711L82.601 144.722C82.6528 144.817 82.7249 144.95 82.828 144.938C83.0328 144.915 83.1796 144.357 83.2736 143.999C83.3035 143.886 83.3281 143.792 83.3475 143.743C83.5327 143.27 83.5644 143.573 83.5966 143.882C83.6007 143.921 83.6048 143.961 83.6093 143.999C83.8552 146.096 83.9468 148.228 83.5602 150.314C83.3597 151.396 82.9125 152.514 82.3822 153.484C82.2965 153.64 82.3156 153.67 82.554 153.55C84.2278 152.703 85.4086 150.771 86.2476 149.168C87.5074 146.76 87.9737 144.233 88.1374 141.537C88.3468 138.088 88.3693 134.499 87.8797 131.072C87.6421 129.408 87.0387 127.997 86.3499 126.503C86.3168 126.432 86.2852 126.35 86.2526 126.267C86.192 126.111 86.1283 125.948 86.0472 125.825C85.6094 126.221 85.1653 126.622 84.7175 127.026Z" fill="url(#paint0_linear)"/>
<path d="M55.089 88.0301C55.089 101.574 46.3836 112.147 36.0932 112.147C25.8028 112.147 17.0974 101.574 17.0974 88.0301C17.0974 74.4861 25.8028 63.9135 36.0932 63.9135C46.3836 63.9135 55.089 74.4861 55.089 88.0301Z" fill="#F24545" stroke="#001835" stroke-width="2"/>
<path d="M112.906 88.0316C112.906 101.576 104.2 112.148 93.9097 112.148C83.6193 112.148 74.9139 101.576 74.9139 88.0316C74.9139 74.4876 83.6193 63.9149 93.9097 63.9149C104.2 63.9149 112.906 74.4876 112.906 88.0316Z" fill="#F24545" stroke="#001835" stroke-width="2"/>
<defs>
<linearGradient id="paint0_linear" x1="81.9381" y1="125.825" x2="81.9381" y2="153.624" gradientUnits="userSpaceOnUse">
<stop stop-color="#082D59"/>
<stop offset="1" stop-color="#001835"/>
</linearGradient>
</defs>
</svg>
